<mxfile host="app.diagrams.net" modified="2023-05-18T08:57:53.244Z" agent="Mozilla/5.0 (X11; Linux x86_64) AppleWebKit/537.36 (KHTML, like Gecko) Chrome/113.0.0.0 Safari/537.36" etag="dwyDMy4zFTbL-O8MhdQF" version="21.3.2" type="github">
  <diagram id="C5RBs43oDa-KdzZeNtuy" name="Page-1">
    <mxGraphModel dx="1050" dy="570" grid="1" gridSize="10" guides="1" tooltips="1" connect="1" arrows="1" fold="1" page="1" pageScale="1" pageWidth="827" pageHeight="1169" math="0" shadow="0">
      <root>
        <mxCell id="WIyWlLk6GJQsqaUBKTNV-0" />
        <mxCell id="WIyWlLk6GJQsqaUBKTNV-1" parent="WIyWlLk6GJQsqaUBKTNV-0" />
        <mxCell id="37cyVDTIAajDvD5pcmCs-15" value="" style="edgeStyle=orthogonalEdgeStyle;rounded=0;orthogonalLoop=1;jettySize=auto;html=1;" edge="1" parent="WIyWlLk6GJQsqaUBKTNV-1" source="WIyWlLk6GJQsqaUBKTNV-3" target="WIyWlLk6GJQsqaUBKTNV-6">
          <mxGeometry relative="1" as="geometry" />
        </mxCell>
        <mxCell id="WIyWlLk6GJQsqaUBKTNV-3" value="ext4_open" style="rounded=1;whiteSpace=wrap;html=1;fontSize=12;glass=0;strokeWidth=1;shadow=0;" parent="WIyWlLk6GJQsqaUBKTNV-1" vertex="1">
          <mxGeometry x="40" y="70" width="120" height="40" as="geometry" />
        </mxCell>
        <mxCell id="37cyVDTIAajDvD5pcmCs-14" value="否" style="edgeStyle=orthogonalEdgeStyle;rounded=0;orthogonalLoop=1;jettySize=auto;html=1;" edge="1" parent="WIyWlLk6GJQsqaUBKTNV-1" source="WIyWlLk6GJQsqaUBKTNV-6" target="WIyWlLk6GJQsqaUBKTNV-7">
          <mxGeometry x="-0.2" y="20" relative="1" as="geometry">
            <mxPoint as="offset" />
          </mxGeometry>
        </mxCell>
        <mxCell id="37cyVDTIAajDvD5pcmCs-41" value="是" style="edgeStyle=orthogonalEdgeStyle;rounded=0;orthogonalLoop=1;jettySize=auto;html=1;exitX=0;exitY=0.5;exitDx=0;exitDy=0;entryX=0;entryY=0.5;entryDx=0;entryDy=0;" edge="1" parent="WIyWlLk6GJQsqaUBKTNV-1" source="WIyWlLk6GJQsqaUBKTNV-6" target="37cyVDTIAajDvD5pcmCs-39">
          <mxGeometry x="-0.9" y="-20" relative="1" as="geometry">
            <mxPoint x="20" y="520" as="targetPoint" />
            <Array as="points">
              <mxPoint x="10" y="200" />
              <mxPoint x="10" y="530" />
            </Array>
            <mxPoint as="offset" />
          </mxGeometry>
        </mxCell>
        <mxCell id="WIyWlLk6GJQsqaUBKTNV-6" value="文件是否&lt;br&gt;存在？" style="rhombus;whiteSpace=wrap;html=1;shadow=0;fontFamily=Helvetica;fontSize=12;align=center;strokeWidth=1;spacing=6;spacingTop=-4;" parent="WIyWlLk6GJQsqaUBKTNV-1" vertex="1">
          <mxGeometry x="50" y="160" width="100" height="80" as="geometry" />
        </mxCell>
        <mxCell id="37cyVDTIAajDvD5pcmCs-2" value="" style="edgeStyle=orthogonalEdgeStyle;rounded=0;orthogonalLoop=1;jettySize=auto;html=1;" edge="1" parent="WIyWlLk6GJQsqaUBKTNV-1" source="WIyWlLk6GJQsqaUBKTNV-7" target="37cyVDTIAajDvD5pcmCs-1">
          <mxGeometry relative="1" as="geometry" />
        </mxCell>
        <mxCell id="WIyWlLk6GJQsqaUBKTNV-7" value="ext2fs_namei" style="rounded=1;whiteSpace=wrap;html=1;fontSize=12;glass=0;strokeWidth=1;shadow=0;" parent="WIyWlLk6GJQsqaUBKTNV-1" vertex="1">
          <mxGeometry x="200" y="180" width="120" height="40" as="geometry" />
        </mxCell>
        <mxCell id="37cyVDTIAajDvD5pcmCs-6" value="" style="edgeStyle=orthogonalEdgeStyle;rounded=0;orthogonalLoop=1;jettySize=auto;html=1;" edge="1" parent="WIyWlLk6GJQsqaUBKTNV-1" source="37cyVDTIAajDvD5pcmCs-1" target="37cyVDTIAajDvD5pcmCs-5">
          <mxGeometry relative="1" as="geometry" />
        </mxCell>
        <mxCell id="37cyVDTIAajDvD5pcmCs-1" value="ext2fs_readinode" style="rounded=1;whiteSpace=wrap;html=1;fontSize=12;glass=0;strokeWidth=1;shadow=0;" vertex="1" parent="WIyWlLk6GJQsqaUBKTNV-1">
          <mxGeometry x="360" y="180" width="120" height="40" as="geometry" />
        </mxCell>
        <mxCell id="37cyVDTIAajDvD5pcmCs-30" value="" style="edgeStyle=orthogonalEdgeStyle;rounded=0;orthogonalLoop=1;jettySize=auto;html=1;" edge="1" parent="WIyWlLk6GJQsqaUBKTNV-1" source="37cyVDTIAajDvD5pcmCs-5" target="37cyVDTIAajDvD5pcmCs-9">
          <mxGeometry relative="1" as="geometry" />
        </mxCell>
        <mxCell id="37cyVDTIAajDvD5pcmCs-5" value="ext2fs_new_inode" style="rounded=1;whiteSpace=wrap;html=1;fontSize=12;glass=0;strokeWidth=1;shadow=0;" vertex="1" parent="WIyWlLk6GJQsqaUBKTNV-1">
          <mxGeometry x="520" y="180" width="120" height="40" as="geometry" />
        </mxCell>
        <mxCell id="37cyVDTIAajDvD5pcmCs-20" value="失败" style="edgeStyle=orthogonalEdgeStyle;rounded=0;orthogonalLoop=1;jettySize=auto;html=1;" edge="1" parent="WIyWlLk6GJQsqaUBKTNV-1" source="37cyVDTIAajDvD5pcmCs-9" target="37cyVDTIAajDvD5pcmCs-19">
          <mxGeometry y="20" relative="1" as="geometry">
            <mxPoint as="offset" />
          </mxGeometry>
        </mxCell>
        <mxCell id="37cyVDTIAajDvD5pcmCs-29" value="" style="edgeStyle=orthogonalEdgeStyle;rounded=0;orthogonalLoop=1;jettySize=auto;html=1;" edge="1" parent="WIyWlLk6GJQsqaUBKTNV-1" source="37cyVDTIAajDvD5pcmCs-9" target="37cyVDTIAajDvD5pcmCs-27">
          <mxGeometry relative="1" as="geometry" />
        </mxCell>
        <mxCell id="37cyVDTIAajDvD5pcmCs-9" value="ext2fs_link" style="rhombus;whiteSpace=wrap;html=1;shadow=0;fontFamily=Helvetica;fontSize=12;align=center;strokeWidth=1;spacing=6;spacingTop=-4;" vertex="1" parent="WIyWlLk6GJQsqaUBKTNV-1">
          <mxGeometry x="530" y="280" width="100" height="80" as="geometry" />
        </mxCell>
        <mxCell id="37cyVDTIAajDvD5pcmCs-22" value="否" style="edgeStyle=orthogonalEdgeStyle;rounded=0;orthogonalLoop=1;jettySize=auto;html=1;" edge="1" parent="WIyWlLk6GJQsqaUBKTNV-1" source="37cyVDTIAajDvD5pcmCs-19" target="37cyVDTIAajDvD5pcmCs-21">
          <mxGeometry y="20" relative="1" as="geometry">
            <mxPoint as="offset" />
          </mxGeometry>
        </mxCell>
        <mxCell id="37cyVDTIAajDvD5pcmCs-24" value="是" style="edgeStyle=orthogonalEdgeStyle;rounded=0;orthogonalLoop=1;jettySize=auto;html=1;" edge="1" parent="WIyWlLk6GJQsqaUBKTNV-1" source="37cyVDTIAajDvD5pcmCs-19" target="37cyVDTIAajDvD5pcmCs-23">
          <mxGeometry y="20" relative="1" as="geometry">
            <Array as="points">
              <mxPoint x="640" y="440" />
              <mxPoint x="640" y="440" />
            </Array>
            <mxPoint as="offset" />
          </mxGeometry>
        </mxCell>
        <mxCell id="37cyVDTIAajDvD5pcmCs-19" value="错误码==&lt;br&gt;DIR_NOSPC?" style="rhombus;whiteSpace=wrap;html=1;shadow=0;fontFamily=Helvetica;fontSize=12;align=center;strokeWidth=1;spacing=6;spacingTop=-4;" vertex="1" parent="WIyWlLk6GJQsqaUBKTNV-1">
          <mxGeometry x="530" y="400" width="100" height="80" as="geometry" />
        </mxCell>
        <mxCell id="37cyVDTIAajDvD5pcmCs-21" value="操作失败返回" style="rounded=1;whiteSpace=wrap;html=1;fontSize=12;glass=0;strokeWidth=1;shadow=0;" vertex="1" parent="WIyWlLk6GJQsqaUBKTNV-1">
          <mxGeometry x="520" y="520" width="120" height="40" as="geometry" />
        </mxCell>
        <mxCell id="37cyVDTIAajDvD5pcmCs-26" style="edgeStyle=orthogonalEdgeStyle;rounded=0;orthogonalLoop=1;jettySize=auto;html=1;exitX=0.5;exitY=0;exitDx=0;exitDy=0;" edge="1" parent="WIyWlLk6GJQsqaUBKTNV-1" source="37cyVDTIAajDvD5pcmCs-23">
          <mxGeometry relative="1" as="geometry">
            <mxPoint x="580" y="250" as="targetPoint" />
            <Array as="points">
              <mxPoint x="740" y="250" />
            </Array>
          </mxGeometry>
        </mxCell>
        <mxCell id="37cyVDTIAajDvD5pcmCs-23" value="ext2fs_expand_dir" style="rounded=1;whiteSpace=wrap;html=1;fontSize=12;glass=0;strokeWidth=1;shadow=0;" vertex="1" parent="WIyWlLk6GJQsqaUBKTNV-1">
          <mxGeometry x="680" y="420" width="120" height="40" as="geometry" />
        </mxCell>
        <mxCell id="37cyVDTIAajDvD5pcmCs-32" value="" style="edgeStyle=orthogonalEdgeStyle;rounded=0;orthogonalLoop=1;jettySize=auto;html=1;" edge="1" parent="WIyWlLk6GJQsqaUBKTNV-1" source="37cyVDTIAajDvD5pcmCs-27" target="37cyVDTIAajDvD5pcmCs-31">
          <mxGeometry relative="1" as="geometry" />
        </mxCell>
        <mxCell id="37cyVDTIAajDvD5pcmCs-27" value="ext2fs_inode_alloc&lt;br&gt;_stats" style="rounded=1;whiteSpace=wrap;html=1;fontSize=12;glass=0;strokeWidth=1;shadow=0;" vertex="1" parent="WIyWlLk6GJQsqaUBKTNV-1">
          <mxGeometry x="360" y="300" width="120" height="40" as="geometry" />
        </mxCell>
        <mxCell id="37cyVDTIAajDvD5pcmCs-34" value="" style="edgeStyle=orthogonalEdgeStyle;rounded=0;orthogonalLoop=1;jettySize=auto;html=1;" edge="1" parent="WIyWlLk6GJQsqaUBKTNV-1" source="37cyVDTIAajDvD5pcmCs-31" target="37cyVDTIAajDvD5pcmCs-33">
          <mxGeometry relative="1" as="geometry" />
        </mxCell>
        <mxCell id="37cyVDTIAajDvD5pcmCs-31" value="设置新文件inode，更新目录inode" style="rounded=1;whiteSpace=wrap;html=1;fontSize=12;glass=0;strokeWidth=1;shadow=0;" vertex="1" parent="WIyWlLk6GJQsqaUBKTNV-1">
          <mxGeometry x="200" y="300" width="120" height="40" as="geometry" />
        </mxCell>
        <mxCell id="37cyVDTIAajDvD5pcmCs-36" value="" style="edgeStyle=orthogonalEdgeStyle;rounded=0;orthogonalLoop=1;jettySize=auto;html=1;" edge="1" parent="WIyWlLk6GJQsqaUBKTNV-1" source="37cyVDTIAajDvD5pcmCs-33" target="37cyVDTIAajDvD5pcmCs-35">
          <mxGeometry relative="1" as="geometry" />
        </mxCell>
        <mxCell id="37cyVDTIAajDvD5pcmCs-33" value="ext2fs_write_new_&lt;br&gt;inode" style="rounded=1;whiteSpace=wrap;html=1;fontSize=12;glass=0;strokeWidth=1;shadow=0;" vertex="1" parent="WIyWlLk6GJQsqaUBKTNV-1">
          <mxGeometry x="40" y="300" width="120" height="40" as="geometry" />
        </mxCell>
        <mxCell id="37cyVDTIAajDvD5pcmCs-38" value="" style="edgeStyle=orthogonalEdgeStyle;rounded=0;orthogonalLoop=1;jettySize=auto;html=1;" edge="1" parent="WIyWlLk6GJQsqaUBKTNV-1" source="37cyVDTIAajDvD5pcmCs-35" target="37cyVDTIAajDvD5pcmCs-37">
          <mxGeometry relative="1" as="geometry" />
        </mxCell>
        <mxCell id="37cyVDTIAajDvD5pcmCs-35" value="ext2fs_write_inode" style="rounded=1;whiteSpace=wrap;html=1;fontSize=12;glass=0;strokeWidth=1;shadow=0;" vertex="1" parent="WIyWlLk6GJQsqaUBKTNV-1">
          <mxGeometry x="40" y="370" width="120" height="40" as="geometry" />
        </mxCell>
        <mxCell id="37cyVDTIAajDvD5pcmCs-40" value="" style="edgeStyle=orthogonalEdgeStyle;rounded=0;orthogonalLoop=1;jettySize=auto;html=1;" edge="1" parent="WIyWlLk6GJQsqaUBKTNV-1" source="37cyVDTIAajDvD5pcmCs-37" target="37cyVDTIAajDvD5pcmCs-39">
          <mxGeometry relative="1" as="geometry" />
        </mxCell>
        <mxCell id="37cyVDTIAajDvD5pcmCs-37" value="ext2fs_open&lt;br&gt;" style="rounded=1;whiteSpace=wrap;html=1;fontSize=12;glass=0;strokeWidth=1;shadow=0;" vertex="1" parent="WIyWlLk6GJQsqaUBKTNV-1">
          <mxGeometry x="40" y="440" width="120" height="40" as="geometry" />
        </mxCell>
        <mxCell id="37cyVDTIAajDvD5pcmCs-39" value="返回打开的文件" style="rounded=1;whiteSpace=wrap;html=1;fontSize=12;glass=0;strokeWidth=1;shadow=0;" vertex="1" parent="WIyWlLk6GJQsqaUBKTNV-1">
          <mxGeometry x="40" y="510" width="120" height="40" as="geometry" />
        </mxCell>
      </root>
    </mxGraphModel>
  </diagram>
</mxfile>
